<?xml version="1.0" encoding="utf-8"?>
<!-- Generator: Adobe Illustrator 25.2.0, SVG Export Plug-In . SVG Version: 6.00 Build 0)  -->
<svg version="1.1" id="Layer_1" xmlns="http://www.w3.org/2000/svg" xmlns:xlink="http://www.w3.org/1999/xlink" x="0px" y="0px"
	 viewBox="0 0 112.8 27" style="enable-background:new 0 0 112.8 27;" xml:space="preserve">
<style type="text/css">
	.st0{fill:#FFFFFF;}
	.st1{fill:#ED6825;}
	.st2{fill:#75A541;}
	.st3{fill:#FAAD2D;}
</style>
<g>
	<path class="st0" d="M3.7,12.1h1.1l2.5-4.7C7.4,7.2,7.6,7,7.9,6.8c0.2-0.1,0.5-0.2,0.8-0.2C9,6.6,9.4,6.8,9.7,7
		c0.3,0.3,0.5,0.6,0.5,1c0,0.3-0.1,0.6-0.2,0.8l-2.7,4.7l2.8,5.5c0.1,0.3,0.2,0.5,0.2,0.8c0,0.5-0.2,0.8-0.5,1.1
		c-0.3,0.3-0.7,0.4-1.1,0.4c-0.3,0-0.5-0.1-0.8-0.2c-0.2-0.1-0.4-0.4-0.6-0.7l-2.7-5.6h-1v5c0,0.5-0.1,0.8-0.4,1.1
		c-0.3,0.3-0.6,0.4-1.1,0.4c-0.4,0-0.8-0.1-1.1-0.4s-0.4-0.6-0.4-1.1V2.3c0-0.5,0.1-0.8,0.4-1.1s0.6-0.4,1.1-0.4
		C2.6,0.8,3,1,3.3,1.2c0.3,0.3,0.4,0.6,0.4,1.1V12.1z"/>
	<path class="st0" d="M26.1,19.9c0,0.5-0.1,0.8-0.4,1.1s-0.6,0.4-1.1,0.4c-0.4,0-0.8-0.1-1.1-0.4s-0.4-0.6-0.4-1.1v-0.1
		c-0.2,0.2-0.5,0.5-0.9,0.7s-0.7,0.4-1.1,0.6c-0.4,0.2-0.8,0.3-1.2,0.4c-0.4,0.1-0.9,0.2-1.3,0.2c-1.1,0-2.2-0.2-3.1-0.6
		c-0.9-0.4-1.8-1-2.4-1.6c-0.7-0.7-1.2-1.5-1.6-2.4c-0.4-0.9-0.6-1.9-0.6-3c0-1.1,0.2-2.1,0.6-3c0.4-0.9,0.9-1.8,1.6-2.5
		c0.7-0.7,1.5-1.3,2.5-1.7s2-0.6,3.1-0.6c1,0,1.8,0.2,2.6,0.5s1.4,0.8,1.9,1.3c0-0.5,0.1-0.8,0.4-1.1c0.3-0.3,0.6-0.4,1.1-0.4
		c0.5,0,0.8,0.1,1.1,0.4c0.3,0.3,0.4,0.6,0.4,1.1V19.9z M18.6,9.3c-0.7,0-1.3,0.1-1.9,0.4c-0.6,0.2-1.1,0.6-1.5,1
		c-0.4,0.4-0.8,0.9-1,1.5c-0.2,0.6-0.4,1.2-0.4,1.8c0,0.6,0.1,1.3,0.4,1.8c0.2,0.6,0.6,1.1,1,1.5c0.4,0.4,0.9,0.8,1.5,1
		c0.6,0.2,1.2,0.4,1.9,0.4c0.6,0,1.2-0.1,1.8-0.4c0.6-0.2,1-0.6,1.4-1c0.4-0.4,0.7-0.9,0.9-1.5c0.2-0.6,0.3-1.2,0.3-1.8
		c0-0.6-0.1-1.3-0.3-1.8c-0.2-0.6-0.5-1.1-0.9-1.5c-0.4-0.4-0.9-0.8-1.4-1C19.8,9.4,19.2,9.3,18.6,9.3z"/>
</g>
<g>
	<path class="st0" d="M48.5,7.9c0.4-0.5,1-0.8,1.6-1.1c0.6-0.3,1.3-0.4,2.1-0.4c0.9,0,1.8,0.2,2.6,0.5s1.4,0.8,2,1.4
		c0.5,0.6,1,1.3,1.2,2.1s0.4,1.7,0.4,2.6V20c0,0.5-0.1,0.8-0.4,1.1c-0.3,0.3-0.6,0.4-1.1,0.4c-0.4,0-0.8-0.1-1.1-0.4
		c-0.3-0.3-0.4-0.6-0.4-1.1v-6.9c0-0.5-0.1-1-0.2-1.5c-0.1-0.4-0.4-0.8-0.7-1.2s-0.6-0.6-1.1-0.8c-0.4-0.2-0.9-0.3-1.4-0.3
		c-0.5,0-1,0.1-1.4,0.3c-0.4,0.2-0.8,0.5-1.1,0.8c-0.3,0.3-0.6,0.7-0.7,1.2c-0.2,0.4-0.2,0.9-0.2,1.5V20c0,0.5-0.1,0.8-0.4,1.1
		c-0.3,0.3-0.6,0.4-1.1,0.4c-0.4,0-0.8-0.1-1.1-0.4s-0.4-0.6-0.4-1.1V2.5c0-0.5,0.1-0.8,0.4-1.1S46.6,1,47,1c0.5,0,0.8,0.1,1.1,0.4
		c0.3,0.3,0.4,0.6,0.4,1.1V7.9z"/>
	<path class="st0" d="M68.9,2.2c0.5,0,0.9,0.1,1.2,0.4s0.4,0.6,0.4,1.1v11.5c0.3,0.1,0.6,0.2,0.8,0.4c0.2,0.2,0.3,0.6,0.3,1
		c0,0.9-0.4,1.4-1.1,1.5v2c0,0.5-0.1,0.8-0.4,1.1s-0.6,0.4-1.1,0.4c-0.5,0-0.8-0.1-1.1-0.4s-0.4-0.6-0.4-1.1v-1.9h-6
		c-0.4,0-0.8-0.1-1.1-0.4c-0.3-0.3-0.4-0.6-0.4-1.1c0-0.3,0.1-0.6,0.3-0.9L67.6,3C67.9,2.4,68.3,2.2,68.9,2.2z M63.9,15.1h3.5v-6
		L63.9,15.1z"/>
	<path class="st1" d="M76.2,20.1c0,0.5-0.1,0.8-0.4,1.1c-0.3,0.3-0.6,0.4-1.1,0.4c-0.4,0-0.8-0.1-1.1-0.4s-0.4-0.6-0.4-1.1v-12
		c0-0.4,0.1-0.7,0.3-1c0.2-0.2,0.5-0.4,0.9-0.4c0.9,0,1.4,0.4,1.5,1.2c0.4-0.5,0.9-0.9,1.5-1.2c0.6-0.2,1.2-0.4,1.9-0.4
		c0.4,0,0.8,0,1.3,0.1C81,6.6,81.4,6.8,81.8,7s0.8,0.4,1.1,0.7c0.3,0.3,0.6,0.6,0.9,1c0.5-0.8,1.2-1.4,2-1.7s1.7-0.5,2.5-0.5
		c0.8,0,1.5,0.2,2.2,0.5c0.7,0.3,1.3,0.7,1.9,1.3s1,1.2,1.3,1.9c0.3,0.7,0.5,1.6,0.5,2.4v7.6c0,0.5-0.1,0.8-0.4,1.1
		s-0.6,0.4-1.1,0.4c-0.4,0-0.8-0.1-1.1-0.4c-0.3-0.3-0.4-0.6-0.4-1.1v-7.6c0-0.4-0.1-0.8-0.2-1.2c-0.2-0.4-0.4-0.7-0.6-1
		s-0.6-0.5-0.9-0.7c-0.4-0.2-0.7-0.2-1.1-0.2c-0.4,0-0.8,0.1-1.1,0.2c-0.4,0.2-0.7,0.4-1,0.7s-0.5,0.6-0.7,1
		c-0.2,0.4-0.3,0.8-0.3,1.2v7.6c0,0.5-0.1,0.8-0.4,1.1c-0.3,0.3-0.6,0.4-1.1,0.4c-0.4,0-0.8-0.1-1.1-0.4c-0.3-0.3-0.4-0.6-0.4-1.1
		v-7.6c0-0.4-0.1-0.8-0.2-1.2c-0.2-0.4-0.4-0.7-0.7-1s-0.6-0.5-0.9-0.7c-0.4-0.2-0.7-0.2-1.1-0.2c-0.4,0-0.7,0.1-1.1,0.2
		c-0.4,0.2-0.7,0.4-1,0.7s-0.5,0.6-0.7,1c-0.2,0.4-0.3,0.8-0.3,1.2V20.1z"/>
	<path class="st1" d="M104,6.4c1.1,0,2,0.2,3,0.6c0.9,0.4,1.8,0.9,2.5,1.6s1.3,1.5,1.7,2.4c0.4,0.9,0.6,1.9,0.6,2.9
		c0,0.5-0.1,0.9-0.4,1.2s-0.6,0.4-1.1,0.4H99.6c0.1,0.5,0.3,0.9,0.6,1.4c0.3,0.4,0.6,0.8,1,1.1c0.4,0.3,0.9,0.5,1.4,0.7
		s1,0.3,1.5,0.3c0.6,0,1.2-0.1,1.8-0.3s1-0.6,1.4-1c0.2-0.2,0.4-0.3,0.6-0.4c0.2-0.1,0.4-0.1,0.6-0.1c0.4,0,0.7,0.1,1,0.4
		s0.4,0.6,0.4,1.1c0,0.2,0,0.4-0.1,0.6s-0.2,0.4-0.3,0.5c-0.7,0.8-1.5,1.3-2.4,1.7c-0.9,0.4-1.9,0.6-3,0.6c-1.1,0-2.1-0.2-3-0.6
		c-0.9-0.4-1.8-1-2.5-1.6c-0.7-0.7-1.3-1.5-1.7-2.4c-0.4-0.9-0.6-1.9-0.6-3c0-1.1,0.2-2.1,0.6-3c0.4-0.9,1-1.8,1.7-2.5
		s1.5-1.3,2.5-1.7C101.9,6.6,102.9,6.4,104,6.4z M104,9.4c-0.5,0-1,0.1-1.5,0.3c-0.5,0.2-0.9,0.4-1.3,0.7c-0.4,0.3-0.7,0.7-1,1.1
		c-0.3,0.4-0.5,0.9-0.6,1.4h8.8c-0.1-0.5-0.3-0.9-0.6-1.4c-0.3-0.4-0.6-0.8-1-1.1c-0.4-0.3-0.8-0.6-1.3-0.7
		C105,9.5,104.5,9.4,104,9.4z"/>
</g>
<circle class="st2" cx="35.9" cy="14.6" r="11.3"/>
<ellipse class="st0" cx="35.9" cy="14.6" rx="10.3" ry="10.2"/>
<ellipse class="st3" cx="35.9" cy="14.6" rx="9.1" ry="9.2"/>
<ellipse class="st0" cx="35.9" cy="14.6" rx="7.9" ry="8"/>
<path d="M33.5,7.9c-0.1-0.3,0-0.6,0.1-0.8c0.2-0.2,0.4-0.4,0.7-0.4c0.4-0.1,0.7,0,0.9,0.2c0.2,0.2,0.4,0.5,0.4,0.9l0.2,1
	c0.2,0,0.5,0.1,0.7,0.1c0.3,0.1,0.5,0.2,0.7,0.3c0.2,0.1,0.3,0.2,0.4,0.4c0.1,0.1,0.2,0.3,0.2,0.5c0.1,0.2,0,0.5-0.2,0.7
	c-0.2,0.2-0.4,0.4-0.6,0.5c-0.2,0-0.3,0-0.4,0c-0.1,0-0.2-0.1-0.4-0.1c-0.2-0.1-0.4-0.2-0.5-0.2c-0.2-0.1-0.4-0.1-0.6,0
	c-0.4,0.1-0.6,0.2-0.8,0.5c-0.2,0.3-0.2,0.6-0.1,0.9c0.1,0.4,0.3,0.6,0.6,0.8c0.3,0.1,0.7,0.2,1.1,0.3c0.5,0.1,0.9,0.2,1.4,0.3
	c0.4,0.1,0.8,0.3,1.2,0.6c0.3,0.2,0.6,0.5,0.8,0.9c0.2,0.3,0.4,0.8,0.5,1.3c0.1,0.4,0.1,0.8,0,1.2c-0.1,0.4-0.2,0.8-0.3,1.1
	c-0.2,0.4-0.4,0.7-0.6,1c-0.3,0.3-0.6,0.5-0.9,0.7l0.2,0.7c0.1,0.3,0,0.6-0.1,0.8c-0.2,0.2-0.4,0.4-0.7,0.5c-0.3,0.1-0.6,0-0.8-0.1
	c-0.2-0.2-0.4-0.4-0.4-0.7L36,21c-0.3,0-0.7,0-1-0.1c-0.3-0.1-0.6-0.2-0.9-0.4c-0.4-0.2-0.6-0.5-0.7-0.8c-0.1-0.3,0-0.6,0.1-0.8
	s0.4-0.4,0.6-0.4c0.2,0,0.4,0,0.5,0c0.2,0,0.3,0.1,0.5,0.2c0.2,0.1,0.4,0.2,0.6,0.2c0.2,0,0.4,0,0.7,0c0.6-0.1,1-0.4,1.2-0.7
	c0.2-0.3,0.2-0.7,0.1-1.2c-0.1-0.4-0.2-0.6-0.4-0.8c-0.2-0.2-0.4-0.3-0.7-0.4c-0.2-0.1-0.5-0.1-0.7-0.2c-0.2,0-0.5-0.1-0.8-0.1
	c-0.3,0-0.5-0.1-0.8-0.2c-0.3-0.1-0.5-0.2-0.8-0.3c-0.3-0.2-0.6-0.4-0.9-0.7c-0.3-0.3-0.4-0.8-0.6-1.4c-0.2-0.7-0.1-1.4,0.2-2
	c0.3-0.6,0.7-1.1,1.3-1.5L33.5,7.9z"/>
</svg>
